<svg width="150" height="44" viewBox="0 0 150 44" fill="none" xmlns="http://www.w3.org/2000/svg">
<path d="M99.28 43.5C99.28 38.32 99.28 33.25 99.28 28.09C97.35 28.09 95.54 28.09 93.57 28.09C93.79 28.48 93.96 28.78 94.13 29.08C95.39 31.18 96.47 33.35 96.87 35.79C97.76 41.33 94.05 43.95 89.58 43.52C84.84 43.07 81.25 40.48 78.25 36.97C78.06 36.74 77.93 36.38 77.93 36.08C77.9 33.55 77.92 31.03 77.92 28.17C78.32 28.65 78.52 28.92 78.75 29.16C80.63 31.22 82.44 33.35 84.43 35.3C85.24 36.1 86.38 36.66 87.47 37.07C89.19 37.73 90.42 36.8 90.24 34.98C90.14 33.97 89.86 32.86 89.32 32.02C87.94 29.86 86.66 27.38 83.28 28.06C83.28 26.15 83.28 24.38 83.28 22.47C88.65 22.47 93.91 22.47 99.23 22.47C99.23 21.67 99.23 20.99 99.23 20.21C91.42 20.21 83.6 20.21 75.63 20.21C75.63 27.93 75.63 35.66 75.63 43.45C73.59 43.45 71.7 43.45 69.67 43.45C69.67 42.51 69.67 41.65 69.67 40.63C64.7 43.46 60.09 43.25 56.21 39.2C52.88 35.73 53.47 31.88 56.32 28.01C54.59 28.01 53.1 28.01 51.56 28.01C51.56 26.1 51.56 24.35 51.56 22.52C57.06 22.52 62.48 22.52 67.99 22.52C67.99 24.34 67.99 26.12 67.99 28.03C67.33 28.03 66.71 28.04 66.1 28.03C63.78 28 60.93 30.21 60.45 32.46C60.17 33.74 60.49 34.89 61.49 35.77C62.69 36.83 64.09 36.97 65.56 36.49C67.27 35.93 68.45 34.7 69.43 33.26C69.55 33.08 69.62 32.83 69.62 32.62C69.63 28.52 69.63 24.42 69.63 20.23C57.25 20.23 45.14 20.23 32.84 20.23C32.84 27.94 32.84 35.67 32.84 43.48C30.56 43.48 28.47 43.48 26.2 43.48C26.2 35.73 26.2 28.01 26.2 20.21C25.34 20.21 24.67 20.21 23.81 20.21C23.81 27.93 23.81 35.62 23.81 43.44C21.62 43.44 19.6 43.44 17.41 43.44C17.34 42.21 17.28 40.92 17.2 39.47C16.74 39.71 16.41 39.89 16.07 40.07C13.8 41.28 11.42 42.13 8.8 41.86C5.47 41.52 3.23 39.45 2.62 36.18C2.47 35.38 2.4 34.55 2.4 33.74C2.38 29.67 2.39 25.6 2.39 21.53C2.39 21.14 2.39 20.75 2.39 20.24C1.57 20.19 0.84 20.15 0 20.1C0 18.58 0 17.12 0 15.55C49.88 15.55 99.78 15.55 149.72 15.55C149.72 17.08 149.72 18.53 149.72 20.05C149.14 20.1 148.62 20.15 147.95 20.21C147.95 27.95 147.95 35.68 147.95 43.48C145.7 43.48 143.61 43.48 141.39 43.48C141.33 42.26 141.26 41.07 141.19 39.75C140.89 39.89 140.67 39.98 140.46 40.09C139.56 40.58 138.69 41.11 137.77 41.55C135.95 42.43 134.02 42.72 132.12 41.98C129.47 40.94 126.88 39.73 124.29 38.61C124.29 36.11 124.29 33.85 124.29 31.53C124.56 31.46 124.85 31.4 125.12 31.32C125.81 31.11 126.53 30.96 127.19 30.67C130.15 29.34 131.22 26.68 129.81 23.76C129.23 22.55 128.21 21.55 127.33 20.5C127.14 20.27 126.69 20.15 126.36 20.15C119.7 20.13 113.04 20.14 106.39 20.14C106.2 20.14 106.01 20.19 105.68 20.23C105.68 27.98 105.68 35.7 105.68 43.5C103.51 43.5 101.49 43.5 99.28 43.5ZM8.76 20.19C8.76 25.13 8.76 29.99 8.76 34.83C9.42 35.61 10.28 35.6 11.07 35.4C13.66 34.76 15.74 33.22 17.67 31.64C17.67 27.72 17.67 23.97 17.67 20.13C14.99 20.13 12.39 20.13 9.8 20.13C9.48 20.13 9.16 20.17 8.76 20.19ZM131.33 34.93C133.25 36.84 134.72 37.08 136.59 35.43C138.27 33.94 139.68 32.14 141.17 30.45C141.37 30.22 141.4 29.78 141.4 29.43C141.41 26.71 141.39 23.99 141.37 21.27C141.37 20.93 141.31 20.58 141.27 20.25C139.07 20.25 136.99 20.25 134.82 20.25C135.49 21.2 136.15 22.01 136.67 22.91C138.2 25.52 138.13 28.11 136.27 30.53C135.53 31.48 134.63 32.32 133.73 33.13C133 33.77 132.17 34.3 131.33 34.93Z" fill="white"/>
<path d="M35.3198 30.11C35.3198 27.88 35.3198 25.74 35.3198 23.59C36.7998 22.67 38.3898 22.38 39.9998 22.29C42.0298 22.17 43.9998 22.56 45.8498 23.43C48.2298 24.56 49.8198 26.31 50.1798 29.09C50.9598 29.19 51.7398 29.29 52.6698 29.4C52.6698 31.15 52.6698 32.9 52.6698 34.78C51.9198 34.82 51.0898 34.87 50.3598 34.91C49.8898 35.96 49.5998 37.01 49.0098 37.84C46.9398 40.72 43.8798 41.33 40.5898 41.13C38.7398 41.02 36.9498 40.57 35.3598 39.45C35.3598 37.3 35.3598 35.16 35.3598 33.03C36.8498 33.55 38.2398 34.14 39.6898 34.5C40.5198 34.71 41.4598 34.65 42.3198 34.5C43.6398 34.26 44.4698 33.38 44.6798 32.04C44.8698 30.79 44.1498 29.5 42.9398 28.88C41.5598 28.16 40.1198 28.26 38.7198 28.73C37.5898 29.11 36.5198 29.62 35.3198 30.11Z" fill="white"/>
<path d="M125.98 24.34C125.98 26.16 125.98 27.91 125.98 29.75C125.52 29.77 125.14 29.8 124.75 29.8C121.85 29.8 118.95 29.83 116.05 29.79C114.98 29.78 114.37 30.26 114.06 31.2C113.77 32.07 114.19 33.41 114.87 33.88C115.55 34.36 116.31 33.99 116.44 33.1C116.52 32.56 116.52 32.01 116.55 31.4C118.52 31.4 120.42 31.4 122.3 31.4C122.3 33.06 122.57 34.71 122.24 36.23C121.54 39.54 118.31 41.11 114.71 40.16C109.69 38.84 106.53 33.18 108.04 28.22C108.75 25.89 110.68 24.26 113.01 24.24C117.16 24.19 121.32 24.25 125.47 24.27C125.61 24.26 125.73 24.3 125.98 24.34Z" fill="white"/>
<path d="M8.23977 4.66H6.41977L7.05977 5.14V10.67L6.63977 10.85L5.60977 10.27V9.41C5.29977 9.58 4.95977 9.66 4.58977 9.66C4.14977 9.66 3.69977 9.55 3.21977 9.32C2.73977 9.1 2.33977 8.79 2.01977 8.41C1.69977 8.02 1.54977 7.6 1.54977 7.13C1.54977 6.62 1.73977 6.18 2.11977 5.82C2.49977 5.46 2.97977 5.28 3.54977 5.28C3.73977 5.28 3.93977 5.3 4.12977 5.34L5.61977 6.06V4.66H1.25977L0.759766 3.94L0.939766 3.58H7.90977L8.41977 4.29L8.23977 4.66ZM3.22977 8.44C3.42977 8.53 3.64977 8.58 3.88977 8.58C4.09977 8.58 4.33977 8.54 4.58977 8.46L3.43977 6.7C3.11977 6.92 2.95977 7.25 2.95977 7.67C2.95977 7.96 3.04977 8.22 3.22977 8.44ZM5.14977 8.18C5.32977 8.06 5.48977 7.9 5.60977 7.7V6.85C5.13977 6.59 4.68977 6.45 4.26977 6.45L4.03977 6.47L5.14977 8.18Z" fill="white"/>
<path d="M11.3399 4.66H9.5199L10.1599 5.14V10.67L9.7399 10.85L8.7099 10.27V4.66H7.9099L7.3999 3.94L7.5799 3.58H11.0099L11.5199 4.29L11.3399 4.66Z" fill="white"/>
<path d="M17.89 4.66H16.07L16.71 5.14V10.67L16.29 10.85L15.26 10.27V7.17H14.11C13.22 7.17 12.78 7.49 12.78 8.12C12.78 8.63 13.24 9.34 14.15 10.24L13.43 10.87C12.77 10.24 12.25 9.65 11.89 9.1C11.53 8.56 11.35 8.04 11.35 7.56C11.35 7.05 11.54 6.63 11.92 6.29C12.3 5.95 12.86 5.78 13.61 5.78H15.25V4.66H11L10.5 3.94L10.68 3.58H17.54L18.05 4.29L17.89 4.66Z" fill="white"/>
<path d="M28.01 4.66H26.18L26.82 5.14V10.67L26.4 10.85L25.37 10.27V8.18H23.83V9.17L23.22 9.47C22.86 9.32 22.47 9.04 22.06 8.63C21.65 8.22 21.38 7.83 21.25 7.47L21.59 6.94H22.41V5.16C22.41 4.76 22.33 4.49 22.15 4.34C21.94 4.33 21.77 4.38 21.64 4.49C21.51 4.6 21.44 4.75 21.44 4.93C21.44 5.2 21.6 5.45 21.92 5.67L21.43 6.13C20.63 5.59 20.23 5.06 20.23 4.52C20.23 4.19 20.36 3.9 20.6 3.67C20.85 3.44 21.16 3.32 21.54 3.32C22.1 3.32 22.61 3.57 23.09 4.06C23.56 4.56 23.8 5.1 23.8 5.69V6.93H25.36V4.66H24.75L24.24 3.94L24.42 3.58H27.66L28.17 4.29L28.01 4.66Z" fill="white"/>
<path d="M31.1597 4.66H29.3397L29.9797 5.14V10.67L29.5597 10.85L28.5297 10.27V4.66H27.7197L27.2197 3.94L27.3997 3.58H30.8297L31.3397 4.29L31.1597 4.66Z" fill="white"/>
<path d="M35.9698 4.66H33.7298L34.3698 5.13V6.54C34.3698 6.87 34.2698 7.16 34.0798 7.42C33.8898 7.68 33.5998 7.95 33.2098 8.23L35.5698 9.83V10.21L34.6198 11.04L31.1198 7.56L31.4398 6.7H32.8598L32.8898 6.52V4.66H30.8198L30.3198 3.94L30.4998 3.58H35.6298L36.1398 4.29L35.9698 4.66Z" fill="white"/>
<path d="M42.5096 4.66H40.6896L41.3296 5.14V10.67L40.9096 10.85L39.8796 10.27V7.17H38.7296C37.8396 7.17 37.3996 7.49 37.3996 8.12C37.3996 8.63 37.8596 9.34 38.7696 10.24L38.0496 10.87C37.3896 10.24 36.8696 9.65 36.5096 9.1C36.1496 8.56 35.9696 8.04 35.9696 7.56C35.9696 7.05 36.1596 6.63 36.5396 6.29C36.9196 5.95 37.4796 5.78 38.2296 5.78H39.8696V4.66H35.6196L35.1196 3.94L35.2996 3.58H42.1596L42.6696 4.29L42.5096 4.66Z" fill="white"/>
<path d="M53.7595 4.66H49.3395L49.9795 5.14V6.28C50.3695 5.97 50.7795 5.82 51.1995 5.82C51.7295 5.82 52.1895 6.04 52.5895 6.47C52.9895 6.9 53.1795 7.4 53.1795 7.96C53.1795 8.87 52.6095 9.71 51.4795 10.48L50.4595 9.4C50.9695 9.03 51.3495 8.71 51.5995 8.43C51.8495 8.16 51.9795 7.89 51.9795 7.63C51.9795 7.3 51.8095 7.13 51.4795 7.13C51.0495 7.13 50.5495 7.47 49.9795 8.15V10.68L49.5595 10.86L48.5295 10.28V9.28C48.3095 9.37 48.0795 9.42 47.8595 9.42C47.2195 9.42 46.6195 9.2 46.0795 8.75C45.5395 8.3 45.2695 7.78 45.2695 7.18C45.2695 6.69 45.4395 6.29 45.7795 5.95C46.1195 5.62 46.5495 5.45 47.0595 5.45L47.5295 5.5L48.5295 6.01V4.66H45.0195L44.5195 3.94L44.6995 3.58H53.4395L53.9395 4.29L53.7595 4.66ZM46.8495 8.3C46.9395 8.33 47.0395 8.34 47.1695 8.34C47.6995 8.34 48.1495 8.1 48.5295 7.61V6.77C48.2695 6.65 48.0095 6.59 47.7695 6.59C47.4295 6.59 47.1595 6.7 46.9595 6.92C46.7595 7.14 46.6495 7.39 46.6495 7.69C46.6495 7.91 46.7095 8.11 46.8495 8.3Z" fill="white"/>
<path d="M56.86 4.66H55.04L55.68 5.14V10.67L55.26 10.85L54.23 10.27V4.66H53.42L52.92 3.94L53.1 3.58H54.28C54.04 2.89 53.78 2.34 53.48 1.94C53.18 1.54 52.82 1.33 52.39 1.33C52.1 1.33 51.87 1.42 51.69 1.59C51.51 1.76 51.42 1.98 51.42 2.23C51.42 2.49 51.53 2.77 51.74 3.09L51.2 3.39C50.55 2.86 50.23 2.27 50.23 1.61C50.23 1.14 50.39 0.75 50.72 0.45C51.04 0.15 51.46 0 51.98 0C52.76 0 53.42 0.33 53.97 1C54.52 1.67 54.94 2.52 55.25 3.58H56.54L57.05 4.29L56.86 4.66Z" fill="white"/>
</svg>
